<?xml version="1.0" encoding="UTF-8"?>
<svg xmlns="http://www.w3.org/2000/svg" version="1.1" viewBox="0 0 1382 389.7">
  <!-- Generator: Adobe Illustrator 29.7.1, SVG Export Plug-In . SVG Version: 2.1.1 Build 8)  -->
  <defs>
    <style>
      .st0, .st1 {
        fill: #231f20;
      }

      .st2 {
        fill: none;
        stroke: #231f20;
        stroke-miterlimit: 10;
        stroke-width: 20px;
      }

      .st1 {
        font-family: MuseoSans-500Italic, 'Museo Sans';
        font-size: 50px;
        font-style: italic;
      }

      .st3 {
        display: none;
      }
    </style>
  </defs>
  <g id="Layer_2" class="st3">
    <g>
      <path class="st0" d="M-691.9,284.7v152.6c-21.2,21.2-55.8,21.1-76.8-.5-20.4-21-19.6-55.7,1.1-76.4l75.7-75.7Z"/>
      <path class="st0" d="M-691.9,518.6v-150.9c21-21,55.2-20.8,75.9.5s19.7,54.8-1.1,75.5l-74.9,74.9Z"/>
    </g>
    <text class="st1" transform="translate(349.8 665.3)"><tspan x="0" y="0">Empowering Teams, Accelerating Deals</tspan></text>
    <circle class="st2" cx="-722.6" cy="608.1" r="58.7"/>
    <path class="st0" d="M-434.3-221.7l-161.1,161.1c-44.5,44.5-44.5,116.6,0,161.1s116.6,44.5,161.1,0L-273.2-60.5l-161.1-161.1Z"/>
    <path class="st0" d="M-261.7,189.3h-322.3l56.1-56.1,105.1-105.1c25.6-25.6,60.3-36.4,93.6-32.6,24.7,2.8,48.6,13.7,67.5,32.6,44.5,44.5,44.5,116.6,0,161.1Z"/>
    <g>
      <path class="st0" d="M-1461.5,289v-69.7h-101.4c-55.9,0-101.4,45.5-101.4,101.4s10.5,51.4,27.6,69.5c5,5.3,10.6,10.1,16.7,14.3,8.4,5.8,17.8,10.3,27.8,13.3,6.3,1.9,12.9,3.2,19.6,3.9,3.2.3,6.5.5,9.7.5,42.3,0,78.6-26,93.8-62.9,9.8,3,18.8,7.7,26.7,13.9-20.3,46.5-66.7,79-120.5,79s-7.5-.2-11.2-.5c-6.8-.6-13.5-1.7-20-3.3-10.6-2.6-20.6-6.4-30-11.4-6.9-3.6-13.4-7.9-19.5-12.6-30.9-24.1-50.7-61.6-50.7-103.7,0-72.5,59-131.4,131.4-131.4h131.4v109.4c-9.5-4.2-19.6-7.5-30-9.7Z"/>
      <g>
        <path class="st0" d="M-1431.5,298.7v-109.4h-131.4c-72.5,0-131.4,59-131.4,131.4s19.9,79.6,50.7,103.7c6.1,4.8,12.6,9,19.5,12.6,9.4,5,19.4,8.8,30,11.4,6.5,1.6,13.2,2.7,20,3.3,3.7.3,7.4.5,11.2.5,53.8,0,100.2-32.5,120.5-79,5.6,4.4,10.6,9.6,14.9,15.3-24.9,49.6-76.2,83.7-135.4,83.7s-7.5-.1-11.2-.4c-6.8-.5-13.5-1.5-20-2.8-10.4-2.2-20.5-5.5-30-9.7-7-3.1-13.6-6.7-20-10.7-42.2-26.9-70.2-74.1-70.2-127.8,0-83.5,67.9-151.4,151.4-151.4h151.4v140.1c-6.4-4.1-13-7.7-20-10.7Z"/>
        <path class="st0" d="M-1391.3,437.2c0,55.9-45.5,101.4-101.4,101.4h-101.4v-69.7c6.5,1.4,13.2,2.3,20,2.8v46.8h81.4c44.9,0,81.4-36.5,81.4-81.4s-6-35.1-16.2-48.7c-4.3-5.7-9.3-10.9-14.9-15.3-7.9-6.2-16.9-11-26.7-13.9-6.5-2-13.3-3.2-20.3-3.4-1.1,0-2.2,0-3.3,0-32.3,0-60.3,19-73.5,46.4-7.1-.3-13.9-1.5-20.4-3.4,15.2-36.9,51.5-62.9,93.8-62.9s6.5.2,9.7.5c6.8.6,13.3,1.9,19.6,3.9,10,3,19.3,7.5,27.8,13.3,6.1,4.1,11.7,8.9,16.7,14.2,17.1,18.2,27.7,42.6,27.7,69.5Z"/>
        <path class="st0" d="M-1481.5,286.2v-46.8h-81.4c-44.9,0-81.4,36.5-81.4,81.4s6,35.1,16.2,48.7c4.3,5.7,9.3,10.9,14.9,15.3,7.9,6.2,16.9,11,26.7,13.9,6.5,2,13.3,3.2,20.4,3.4,1.1,0,2.2,0,3.3,0,32.4,0,60.4-19,73.5-46.3,7,.3,13.9,1.5,20.3,3.4-15.2,36.9-51.5,62.9-93.8,62.9s-6.5-.2-9.7-.5c-6.8-.6-13.3-2-19.6-3.9-10-3-19.3-7.5-27.8-13.3-6.1-4.1-11.7-8.9-16.7-14.3-17.1-18.2-27.6-42.6-27.6-69.5,0-55.9,45.5-101.4,101.4-101.4h101.4v69.7c-6.5-1.4-13.2-2.3-20-2.8Z"/>
        <path class="st0" d="M-1361.3,437.2c0,72.5-59,131.4-131.4,131.4h-131.4v-109.4c9.5,4.2,19.6,7.5,30,9.7v69.7h101.4c55.9,0,101.4-45.5,101.4-101.4s-10.5-51.4-27.7-69.5c-5-5.3-10.6-10.1-16.7-14.2-8.4-5.8-17.8-10.3-27.8-13.3-6.3-1.9-12.9-3.2-19.6-3.9-3.2-.3-6.5-.5-9.7-.5-42.3,0-78.6,26-93.8,62.9-9.8-3-18.8-7.7-26.7-13.9,20.3-46.5,66.7-79,120.5-79s7.5.2,11.2.5c6.8.6,13.5,1.7,20,3.3,10.5,2.6,20.6,6.4,30,11.4,6.9,3.6,13.4,7.8,19.5,12.6,30.9,24.1,50.8,61.6,50.8,103.7Z"/>
        <path class="st0" d="M-1341.3,437.2c0,83.5-67.9,151.4-151.4,151.4h-151.4v-140.1c6.4,4.1,13,7.7,20,10.7v109.4h131.4c72.5,0,131.4-59,131.4-131.4s-19.9-79.6-50.8-103.7c-6.1-4.8-12.6-9-19.5-12.6-9.4-5-19.5-8.8-30-11.4-6.5-1.6-13.2-2.7-20-3.3-3.7-.3-7.4-.5-11.2-.5-53.8,0-100.2,32.5-120.5,79-5.6-4.4-10.6-9.6-14.9-15.3,24.9-49.6,76.3-83.7,135.4-83.7s7.5.1,11.2.4c6.8.5,13.5,1.4,20,2.8,10.4,2.2,20.5,5.5,30,9.7,7,3.1,13.6,6.7,20,10.7,42.2,26.9,70.2,74.1,70.2,127.8Z"/>
      </g>
    </g>
    <g>
      <path class="st0" d="M-1493.8-157v-51h-74.3c-41,0-74.3,33.3-74.3,74.3s7.7,37.6,20.2,50.9c3.7,3.9,7.8,7.4,12.2,10.4,6.2,4.2,13,7.5,20.3,9.8,4.6,1.4,9.4,2.4,14.4,2.8,2.4.2,4.7.3,7.1.3,31,0,57.6-19.1,68.7-46.1,7.2,2.2,13.8,5.7,19.5,10.2-14.9,34-48.8,57.9-88.3,57.9s-5.5-.1-8.2-.3c-5-.4-9.9-1.2-14.7-2.4-7.7-1.9-15.1-4.7-22-8.4-5-2.7-9.8-5.8-14.3-9.2-22.6-17.6-37.2-45.1-37.2-75.9,0-53.1,43.2-96.3,96.3-96.3h96.3v80.1c-7-3.1-14.3-5.5-22-7.1Z"/>
      <path class="st0" d="M-1420.4-48.5c0,53.1-43.2,96.3-96.3,96.3h-96.3V-32.3c7,3.1,14.3,5.5,22,7.1V25.8h74.3c41,0,74.3-33.3,74.3-74.3s-7.7-37.6-20.3-50.9c-3.7-3.9-7.8-7.4-12.2-10.4-6.2-4.2-13-7.5-20.3-9.8-4.6-1.4-9.4-2.4-14.4-2.8-2.3-.2-4.7-.3-7.1-.3-31,0-57.6,19.1-68.7,46.1-7.2-2.2-13.8-5.7-19.5-10.2,14.9-34,48.8-57.9,88.3-57.9s5.5.1,8.2.3c5,.4,9.9,1.2,14.7,2.4,7.7,1.9,15.1,4.7,22,8.4,5,2.7,9.8,5.8,14.3,9.2,22.6,17.6,37.2,45.1,37.2,75.9Z"/>
    </g>
  </g>
  <g id="Layer_1">
    <g>
      <g>
        <path class="st0" d="M439.5,221s15.7,14.4,33.2,14.4,14.6-2.7,14.6-11.1c0-16.5-62.6-15.9-62.6-58.7s21.6-42.5,49.2-42.5,44.7,15.7,44.7,15.7l-14.4,27.8s-14-12.2-30.7-12.2-14.8,3.1-14.8,10.9c0,17.5,62.6,14.4,62.6,58.3s-17.7,43.1-49,43.1-50.7-19.8-50.7-19.8l17.9-25.8Z"/>
        <path class="st0" d="M591.2,201.9h1.4v-1.7c0-8.4-6.4-11.1-14.8-11.1-12.6,0-27,9.5-27,9.5l-11.7-23.7s17.3-13,42-13,45.1,15.3,45.1,40.8v61.6h-30.7v-6c0-3.3.4-6.2.4-6.2h-.4s-7.4,14.6-28.4,14.6-34-12.4-34-32.2c0-29.1,42.5-32.4,58.1-32.4ZM576.4,241c8.7,0,16.5-9.5,16.5-17.7v-2.1h-3.1c-10.7,0-22.9,3.1-22.9,11.5s2.9,8.4,9.5,8.4Z"/>
        <path class="st0" d="M648.1,125.4h33.6v97.5c0,9.5,1.7,12.8,9.3,12.8s4.1-.2,4.1-.2v29.1s-4.7.6-10.1.6c-17.9,0-36.9-4.3-36.9-37.9v-102Z"/>
        <path class="st0" d="M757.1,161.9c29.5,0,46.2,20.6,46.2,48.4s-.8,10.5-.8,10.5h-63.1c2.5,12.2,12.6,17.9,23.3,17.9s27.6-10.1,27.6-10.1l12.4,23.5s-16.1,14.6-42.7,14.6-55-25.8-55-52.5,19.8-52.3,52.1-52.3ZM769.5,201.5c0-7.6-5.2-14.4-13.2-14.4s-14.4,7-16.1,14.4h29.3Z"/>
        <path class="st0" d="M828.2,229.3s11.1,10.1,25.5,10.1,9.9-1.4,9.9-4.7c0-8.7-46.8-9.7-46.8-42.4s18.1-30.5,41.2-30.5,35.2,11.5,35.2,11.5l-11.5,23.9s-9.7-8.2-23.7-8.2-9.9,1.4-9.9,4.9c0,7.6,46.8,8.7,46.8,41s-15.2,31.7-41,31.7-40-14.8-40-14.8l14.4-22.5Z"/>
        <path class="st0" d="M980.3,123.1c34.4,0,52.1,19.6,52.1,19.6l-15.7,25.6s-15.5-14.2-34.8-14.2-39.2,19.6-39.2,39.6,13.6,41.8,39.2,41.8,36.9-17.1,36.9-17.1l17.5,24.9s-19.6,23.3-56,23.3-72.9-30.9-72.9-72.1,31.1-71.5,72.9-71.5Z"/>
        <path class="st0" d="M1102.1,161.9c31.7,0,56.9,21.2,56.9,52.6s-25.3,52.1-56.7,52.1-56.7-20.8-56.7-52.1,25.3-52.6,56.5-52.6ZM1102.3,238.7c12.2,0,22.7-9.1,22.7-24.1s-10.5-24.7-22.7-24.7-22.7,9.5-22.7,24.7,10.5,24.1,22.7,24.1Z"/>
        <path class="st0" d="M1176.5,164.2h32.2v16.9c0,3.3-.4,6.2-.4,6.2h.4c4.3-13.6,16.9-24.9,31.9-24.9s3.9.4,3.9.4v33s-2.7-.6-6.8-.6c-8,0-21,2.5-25.8,17.5-1.2,3.7-1.7,8.2-1.7,13.6v37.9h-33.6v-100.1Z"/>
        <path class="st0" d="M1304.9,161.9c29.5,0,46.2,20.6,46.2,48.4s-.8,10.5-.8,10.5h-63.1c2.5,12.2,12.6,17.9,23.3,17.9s27.6-10.1,27.6-10.1l12.4,23.5s-16.1,14.6-42.7,14.6-55-25.8-55-52.5,19.8-52.3,52.1-52.3ZM1317.3,201.5c0-7.6-5.2-14.4-13.2-14.4s-14.4,7-16.1,14.4h29.3Z"/>
      </g>
      <path class="st0" d="M215.8,181.4c-1.3,0-2.6,0-3.9,0-9.6,0-15.4-10.3-10.6-18.6,7.8-13.5,68.1-137.1,68.1-137.1H123.4c-50.4,0-92.1,40.3-92.5,90.6s40.7,92,91.3,92c.1,0,.2,0,.3,0,9.6,0,15.6,10.3,10.7,18.6-7.8,13.5-68.1,137.1-68.1,137.1h147.1c50.9,0,92-41.6,91.3-92.6-.7-48.4-39.5-88.2-87.9-90Z"/>
    </g>
  </g>
</svg>